<?xml version="1.0" encoding="utf-8"?>
<svg viewBox="-2.982 0 502.982 582.932" xmlns="http://www.w3.org/2000/svg" xmlns:bx="https://boxy-svg.com">
  <path id="path222" style="fill: rgb(255, 255, 255);" d="M 96.878 426.786 C 107.111 427.17 114.523 430.224 119.203 435.826 C 123.89 440.512 124.836 445.341 122.023 450.497 C 119.203 454.714 113.665 456.83 105.235 456.83 C 97.283 456.354 90.329 454.254 84.236 450.497 C 78.706 446.769 77.519 441.847 80.814 435.826 C 84.472 429.734 89.869 426.786 96.878 426.786 Z"/>
  <path d="M 254.326 161.014 H 291.138 V 375.408 H 359.675 V 410.229 H 291.138 V 476.137 H 254.326 V 410.229 H 185.79 V 375.408 H 254.326 Z" style="fill: rgb(192, 87, 87); transform-origin: 272.733px 318.576px;" transform="matrix(0.775997877121, 0.630734920502, -0.635326981544, 0.772264897823, -44.962690443052, 77.67488164249)" bx:shape="cross 185.79 161.014 173.885 315.123 34.821 36.812 0.736 1@c22db420"/>
  <path d="M 204.073 71.344 H 234.909 V 128.994 H 303.889 V 158.187 H 234.909 V 334.058 H 204.073 V 158.187 H 135.093 V 128.994 H 204.073 Z" style="fill: rgb(185, 110, 110); fill-rule: nonzero; paint-order: fill; transform-origin: 219.491px 202.701px;" transform="matrix(0.759886026382, 0.650056123734, -0.650056123734, 0.759886026382, 31.941697078608, -15.267672185018)" bx:shape="cross 135.093 71.344 168.796 262.714 29.193 30.837 0.275 1@40f3b726"/>
  <path d="M 254.326 161.014 H 291.138 V 375.534 H 359.675 V 410.355 H 291.138 V 476.137 H 254.326 V 410.355 H 185.79 V 375.534 H 254.326 Z" style="fill: rgb(228, 79, 79); transform-origin: 272.733px 318.576px;" transform="matrix(0.639728009701, -0.768602013588, 0.764816105366, 0.644276022911, 7.196231741529, 4.770559019609)" bx:shape="cross 185.79 161.014 173.885 315.123 34.821 36.812 0.736 1@1a04cb80"/>
  <path d="M 258.778 199.445 H 286.687 V 490.435 H 359.675 V 508.011 H 286.687 V 589.781 H 258.778 V 508.011 H 185.79 V 490.435 H 258.778 Z" style="fill: rgb(194, 101, 101); transform-origin: 272.733px 394.613px;" transform="matrix(-0.636514008045, 0.771264910698, -0.767499029636, -0.6410779953, -53.715764503442, -199.647196099901)" bx:shape="cross 185.79 199.445 173.885 390.336 17.575 27.91 0.768 1@06b653b5"/>
</svg>